<svg width="74" height="32" viewBox="0 0 74 32" fill="none" xmlns="http://www.w3.org/2000/svg">
<circle cx="28.5" cy="11.5" r="7.5" fill="white"/>
<path d="M11.5 19C15.6421 19 19 15.6421 19 11.5C19 7.35786 15.6421 4 11.5 4C7.35786 4 4 7.35786 4 11.5C4 11.6229 4.00296 11.7452 4.00881 11.8667C4.003 11.9103 4 11.9548 4 12V27C4 27.5523 4.44772 28 5 28H6C6.55228 28 7 27.5523 7 27V17.5005C8.25349 18.4421 9.81159 19 11.5 19Z" fill="white"/>
<path d="M70 20.5C70 24.6421 66.6421 28 62.5 28C58.6961 28 55.5536 25.1681 55.0658 21.4976C54.993 20.9501 55.4477 20.5 56 20.5H57C57.5523 20.5 57.9885 20.9534 58.1097 21.4922C58.5616 23.5001 60.3556 25 62.5 25C64.9853 25 67 22.9853 67 20.5V17.5005C65.7465 18.4421 64.1884 19 62.5 19C58.3579 19 55 15.6421 55 11.5C55 7.35786 58.3579 4 62.5 4C66.4741 4 69.7263 7.09098 69.9836 11H70V20.5Z" fill="white"/>
<path fill-rule="evenodd" clip-rule="evenodd" d="M51 19C50.4477 19 50 18.5523 50 18L50 11.5C50 9.01472 47.9853 7 45.5 7C43.0147 7 41 9.01472 41 11.5L41 18C41 18.5523 40.5523 19 40 19L39 19C38.4477 19 38 18.5523 38 18L38 11.5C38 7.35786 41.3579 4 45.5 4C49.6421 4 53 7.35786 53 11.5L53 18C53 18.5523 52.5523 19 52 19L51 19Z" fill="white"/>
</svg>
