<?xml version="1.0" standalone="no"?>
<!DOCTYPE svg PUBLIC "-//W3C//DTD SVG 20010904//EN"
 "http://www.w3.org/TR/2001/REC-SVG-20010904/DTD/svg10.dtd">
<svg version="1.0" xmlns="http://www.w3.org/2000/svg"
 width="700.000000pt" height="700.000000pt" viewBox="0 0 700.000000 700.000000"
 preserveAspectRatio="xMidYMid meet">
<metadata>
Created by potrace 1.14, written by Peter Selinger 2001-2017
</metadata>
<g transform="translate(0.000000,700.000000) scale(0.100000,-0.100000)"
fill="#000000" stroke="none">
<path d="M119 6972 c-39 -20 -62 -41 -84 -77 l-30 -48 0 -3347 0 -3347 30 -48
c22 -36 45 -57 84 -77 l53 -28 3328 0 3328 0 53 28 c39 20 62 41 84 77 l30 48
0 3347 0 3347 -30 48 c-22 36 -45 57 -84 77 l-53 28 -3328 0 -3328 0 -53 -28z
m3716 -862 c889 -126 1516 -948 1400 -1833 -94 -717 -635 -1284 -1345 -1408
-151 -27 -391 -29 -540 -4 -218 36 -448 124 -625 239 -47 31 -88 56 -90 56 -3
0 -5 -458 -5 -1017 0 -618 -4 -1042 -10 -1078 -13 -77 -50 -131 -115 -164 -47
-25 -57 -26 -210 -26 -176 0 -207 9 -267 72 -62 65 -58 -69 -58 1875 0 1894 0
1872 49 2066 127 497 481 908 955 1108 110 47 287 96 399 113 86 12 377 13
462 1z"/>
</g>
</svg>
